<?xml version="1.0" encoding="utf-8"?>
<!-- Generator: Adobe Illustrator 27.6.1, SVG Export Plug-In . SVG Version: 6.00 Build 0)  -->
<svg version="1.1" id="Layer_1" xmlns="http://www.w3.org/2000/svg" xmlns:xlink="http://www.w3.org/1999/xlink" x="0px" y="0px"
	 viewBox="0 0 1465 1465" style="enable-background:new 0 0 1465 1465;" xml:space="preserve">
<g>
	<g>
		<path d="M1466.83,763.63c-4.27,12.05-2.26,24.76-3.21,37.08c-3.15,41.08-10.98,81.19-21.14,120.99
			c-9.93,38.92-23.35,76.66-39.84,113.17c-16.69,36.96-36.56,72.3-58.8,106.27c-3.63,5.54-6.69,1.63-9.7-0.01
			c-16.65-9.05-25.74-24.2-31.93-41.25c-12.83-35.36-25.04-70.94-33.86-107.57c-3.96-16.45-6.88-33.08-7.74-50.02
			c-0.21-4.16-1.03-8.51-5.03-10.07c-12.61-4.92-15.1-16.61-16.88-27.29c-1.79-10.71-3.16-22.39,4.05-33.96
			c3.74,10.36,4.29,20.27,8.25,29.36c8.06,18.51,22.71,28.4,41.44,31.35c12.98,2.04,22.49-6.51,30.38-16.45
			c12.46-15.7,15.17-34.31,11.67-52.57c-3.54-18.49-1.46-33.79,9.1-49.55c13.2-19.69,17.82-43.15,24.44-65.65
			c6.63-22.57,8.6-45.58,9.27-68.95c0.4-13.94,10.58-22.2,21.98-27.54c17.93-8.4,34.33-19.22,50.5-30.31
			c7.26-4.98,8.76-1.93,9.33,4.01c2.14,22,5.77,43.87,5.73,66.06c-0.01,4.85-0.47,9.77,1.97,14.29
			C1466.83,724.56,1466.83,744.1,1466.83,763.63z"/>
		<path d="M675.73,1466.83c-0.24-1.17-5.67-3.11-0.8-3.18c26.46-0.38,49.01-14.47,73.92-19.86c8.47-1.83,17.61-0.98,26.42-0.78
			c21.59,0.49,43.03,0.32,63.74-7.14c31.2-11.24,60.13-26.75,87.65-45.2c35.46-23.78,67.61-51.81,101.41-77.71
			c18.42-14.12,38.17-26.48,57.18-39.84c23.13-16.26,43.72-35.32,62.65-56.32c18.82-20.88,34.31-44.33,51.88-66.16
			c1.9-2.36,3.88-6.01,7.13-4.15c3.37,1.93,1.67,5.85,0.73,9c-8.49,28.64-20,56.16-31.24,83.77
			c-14.55,35.74-29.37,71.37-44.02,107.07c-3.73,9.1-13.11,11.3-20.21,15.57c-33.98,20.43-69.2,38.71-106.22,52.99
			c-45.04,17.37-91.08,31.14-138.84,39.65c-30.85,5.49-61.69,9.15-92.89,10.77c-1.73,0.09-3.41,1-5.12,1.53
			C737.99,1466.83,706.86,1466.83,675.73,1466.83z"/>
		<path d="M193.58,534.98c-0.46-1.75,0.52-2.7,1.52-3.21c35.95-18.38,71.89-36.71,110.12-50.19c32.93-11.61,66.29-21.79,99.58-32.25
			c33.88-10.64,67.94-20.62,102.49-28.73c27.46-6.44,55.32-11.16,83.04-16.44c25.78-4.91,51.81-8.19,77.56-13.31
			c23.07-4.59,46.94-5.01,70.32-8.22c19.55-2.68,39.18-4.27,58.77-6.37c10.28-1.1,20.66-1.69,30.87-2.18
			c66.67-3.19,133.35-8.63,200.14-5.62c30.51,1.37,61.36,3.56,90.98,11.12c35.24,8.99,68.08,23.88,96,48.44
			c10.75,9.46,19.1,21.53,31.99,28.69c7.23,4.02,14.54,7.06,22.72,8.55c18.5,3.36,36.73,7.83,52.17,19.33
			c1.98,1.48,6.95,2.69,4.79,6.36c-1.62,2.74-5.44,0.82-8.41,0.1c-30.16-7.29-57.67-0.47-80.42,19.61
			c-14.98,13.22-22.05,32.33-25.54,52.13c-7.37,41.88-3.71,83.58,4.04,124.88c4.03,21.5,11.05,42.43,16.32,63.71
			c8.48,34.22-14.46,56.97-46.6,59.81c-1.82,0.16-3.66-0.01-5.49,0.04c-17.1,0.46-18.72-2.45-14.54-19.75
			c4.31-17.85,11.88-34.57,16.15-52.46c9.85-41.26,4.93-80.68-13.83-118.16c-7.66-15.3-18.45-29.02-27.55-43.62
			c-9.63-15.46-9.59-15.74-25.69-7.35c-18.44,9.62-38.33,16.48-55.07,29.36c-3.88,2.99-7.85,2.04-10.74-2.49
			c-3.61-5.65-7.14-11.36-9.09-17.78c-3.93-12.94-7.46-26.01-11.4-38.95c-0.95-3.13-2.62-6.14-4.44-8.89
			c-1.51-2.28-4.41-2.6-6.63-1.54c-2.74,1.31-0.97,3.65-0.22,5.52c7.67,19.38,10.31,40.25,17.96,59.69
			c2.67,6.78,3.01,15.44-3.96,20.03c-17.51,11.54-22.3,29.63-25.6,48.1c-4.96,27.8-20.92,46.29-45.7,57.96
			c-22.33,10.51-45.16,19.62-68.86,26.93c-22.16,6.84-44.21,14.07-66.98,18.22c-37.26,6.78-74.51,14.31-112.79,12.17
			c-22.44-1.25-40.45-10.25-54.71-27.95c-11.95-14.84-24.19-29.45-36-44.41c-5.3-6.72-8.48-14.63-13.96-21.19
			c-8.03-9.62-23.35-12.45-40.46-6.83c-10.98,3.6-18.32,14.19-18.98,26.28c-1.35,24.51-3.94,48.93-8.99,72.96
			c-5.51,26.18-23.06,43.23-45.44,55.77c-20.95,11.75-44,17.86-66.98,24.42c-28.16,8.04-56.57,14.85-85.49,18.86
			c-29.43,4.07-59.22,7.91-88.29-2.55c-10.99-3.96-19.47-11.88-27.75-19.88c-1.41-1.37-2.65-4.19-5.04-3.13
			c-2.79,1.24-1.82,4.39-1.38,6.52c7.44,36.07,16.06,71.6,34.18,104.4c7.74,14.01,13.7,29.5,15.85,45.9
			c0.34,2.6,2.63,5.58-0.69,7.18c-2.9,1.39-5.37-1.53-6.71-3.43c-5.41-7.62-10.76-15.36-15.25-23.54
			c-6.11-11.11-11.35-22.69-17.07-34.01c-8.56-16.96-22.11-29.87-35.04-43.32c-9.87-10.28-14.64-22.57-14.01-37.06
			c0.49-11.27,0.13-22.58,0.09-33.87c-0.04-11.37,0.07-22.12-6.69-32.88c-7.73-12.3-6.12-27.98-9.47-42.02
			c-2.79-11.67-3.28-23.88-5.03-35.82c-1.23-8.42-1.64-16.57,5.53-22.78c2.04-1.76,1.68-2.6,0.81-5.06
			c-9.37-26.65-16.99-53.8-14.29-82.42c2.4-25.4,8.82-49.81,22.57-71.77c1.92-3.06,4.05-7.23,8.22-5.86
			c4.01,1.32,1.99,5.76,1.98,8.84c-0.1,27.71-3.58,55.34-0.2,83.14c2.3,18.91,7.12,37.2,10.79,55.78c1.25,6.34,4.64,4.6,8.68,3.8
			c17.68-3.53,30.37-14.25,40.41-28.37c7.28-10.24,17.52-17,27.95-22.53c21.09-11.18,43.38-18.52,67.77-20.88
			c27.98-2.71,55.16,2.22,82.72,3.42c37.07,1.63,74.17,4.72,111.38,0.87c36.7-3.8,70.25-16.42,101.77-34.67
			c32.46-18.79,63.85-39.44,96.6-57.69c33.62-18.73,70.04-26.93,108.95-25.82c20.91,0.59,40.46,6.39,60.58,10.1
			c18.27,3.37,36.64,1.3,54.63-0.96c14.59-1.84,29.12-0.15,43.69-2.45c32.85-5.19,65.93-8.99,98.92-13.3
			c8.53-1.11,9.47-4.04,3.31-12.27c-12.82-17.13-27.95-31.84-47.11-41.71c-31.7-16.32-64.52-29.96-99.01-39.34
			c-43.48-11.83-87.9-13.83-132.63-13.17c-31.66,0.47-63.01,4.55-94.47,7.34c-32.64,2.89-65.28,5.82-97.84,9.46
			c-25.87,2.89-51.55,7.49-77.44,10.17c-25.32,2.63-50.23,7.34-74.76,13.6c-39.04,9.96-77.46,22.1-115.49,35.56
			c-18.45,6.53-37.12,12.62-55.58,19.18c-35.85,12.74-71.53,25.96-104.79,44.81C199.37,535.1,196.52,536.07,193.58,534.98z
			 M735.35,756.24c26.53,1.66,51.44-5.37,76.65-9.99c28.98-5.3,57.17-13.76,85.41-22.05c20-5.87,39.74-12.18,57.8-22.75
			c13.6-7.96,25.55-17.96,29.49-34.02c4.16-16.96,3.48-34.29,0.47-51.42c-7.74-44.13-32.92-67.03-77.78-70.23
			c-30.47-2.17-60.09,3.21-89.77,10.18c-29.93,7.03-59.59,14.59-88.74,24.38c-26.05,8.74-52.34,16.87-73.85,35.03
			c-17.47,14.76-33.19,39.97-15.13,67.07c8.49,12.75,16.99,25.46,25.85,37.96C682.95,744.68,704.39,760.16,735.35,756.24z
			 M448.11,651.95c-9.64-1.25-20.24,2.46-31.08,3.29c-36.62,2.8-72.41,9.63-107.29,20.86c-21.1,6.79-42.99,11.67-62.22,23.45
			c-17,10.42-31.55,23.01-33.16,44.6c-2.21,29.58,4.86,57.04,21.75,81.5c13.83,20.02,32.4,32.12,57.79,31.39
			c23.35-0.67,46.5-3.95,69.36-7.9c38.55-6.66,76.34-16.92,112.9-31.14c26.6-10.35,42.69-28.67,46.27-58.08
			c2.26-18.53-1.59-36.36-3.2-54.36c-1.53-17.05-7.64-33.42-23.54-42.91C481.66,654.27,465.98,651.03,448.11,651.95z"/>
		<path d="M139.63,456.86c24.13-21.65,51.68-32.26,76.7-47.23c-25.49,4.91-48.73,16.05-72.48,25.88
			c26.16-22.25,57.04-36.24,87.12-51.77c-24.17,3.31-46.27,13.25-69.36,20.44c27.83-21.93,59.38-36.95,93.68-50.91
			c-8.01-0.65-31.33,3.29-37.44,6.58c-9.37,5.06-20.21,6.43-29.24,12.24c-1.65,1.06-4.02,2.78-5.34-0.13
			c-1-2.22,0.67-3.96,2.64-5.21c21.5-13.61,43.66-25.86,68.07-33.61c5.32-1.69,10.68-3.49,14.9-7.58
			c-21.8,0.44-41.56,8.95-62.11,14.63c22.9-18.56,50.79-27.29,76.56-40.31c-17.89-0.23-33.8,8.34-53.32,11.7
			c13.49-10.62,26.74-17.11,39.59-24.12c33.39-18.24,67.8-33.96,104.06-46.06c44.76-14.94,89.09-30.95,135.04-42.18
			c31.47-7.69,63.03-14.84,94.59-22.09c25.65-5.9,51.8-8.05,77.43-13.73c13.21-2.92,27.09-3.46,40.71-3.84
			c34.75-0.98,69.5-3.14,104.29-1.98c37.33,1.25,74.2,6.74,109.95,17.02c40.43,11.63,79.93,26.46,118.4,43.55
			c33.83,15.02,67.66,30.23,99.16,49.97c3.38,2.12,7.63,5.11,6.6,9.07c-1.25,4.82-6.75,3.28-10.31,2.79
			c-43.73-6-87.7-3.78-131.52-3.08c-45.31,0.72-90.6,3.09-135.76,8.15c-24.08,2.7-48.38,4.33-72.59,6.33
			c-20.81,1.72-41.49,4.98-62.21,7.69c-23.39,3.05-46.67,6.83-70.01,10.16c-31.07,4.44-61.92,10.1-92.68,16.09
			c-34.88,6.79-69.66,14.34-104.16,22.85c-34.77,8.58-69.16,18.67-103.68,28.23c-27.81,7.7-55.85,14.73-83.27,23.65
			c-34.33,11.17-68.43,23.07-101.66,37.43C175.74,444.5,159.48,451.85,139.63,456.86z"/>
		<path d="M529.22,1436.69C299.51,1373.2,84.48,1177.45,20.25,897.9c14.3,2.93,27.56,8.21,41.32,11.58
			c28.73,7.05,58.16,10.2,86.96,16.83c9.09,2.09,18.69-0.22,28.17,1.6c13.86,2.67,20.3,11.85,22.73,24.04
			c7.74,38.77,24.13,73.52,47.48,105.13c3.4,4.6,7.46,9.15,12.17,12.27c12.69,8.41,14.47,20.27,11.44,33.51
			c-5.83,25.42,4.74,45.51,20.52,63.64c4.16,4.77,11.28,5.71,17.83,5.01c12.58-1.34,19.86,4.66,22.17,16.26
			c7.73,38.87,29.36,70.16,52.09,101.3c18.08,24.77,37.45,48.41,57.84,71.2c15.06,16.84,31.9,31.95,49.49,46.2
			C503.19,1416.78,515.26,1427.92,529.22,1436.69z"/>
		<path d="M492.72,1169.73c-0.63-9.94,0.5-19.05,4.59-27.89c1.78-3.86,3.42-7.21,7.66-8.09c5.22-1.08,5.32,3.92,7.16,6.74
			c4.58,7.01,8.17,14.56,17.58,17.11c8.92,2.41,16.26,0.66,22.47-5.57c18.87-18.91,41.87-30.31,67.24-37.35
			c9.82-2.73,20.3-2.6,29.9-0.64c19.72,4.03,35.72-2.4,50.01-14.65c12.85-11.01,26.54-17.76,44.18-17.36
			c34.15,0.78,68.33,0.09,102.5,0.34c8.05,0.06,15.66-1.73,23.16-3.92c9.79-2.87,11.25-9.62,3.6-16.35
			c-6.12-5.39-10.32-11.92-13.48-19.22c-2.75-6.36,0.21-11.15,6.02-12.88c26.73-7.97,54.31,9.68,57.62,38.88
			c1.78,15.71-4.03,28.38-15.15,39.17c-2.82,2.73-6.24,3.85-9.62,4.82c-5.09,1.46-8.35-0.56-8.15-6.39
			c0.21-6.08,0.31-12.18,0.78-18.24c0.23-2.99,2.04-6.4-0.84-8.56c-3.45-2.59-6.51,0.79-8.7,2.57
			c-19.66,15.97-44.87,18.22-67.17,27.59c-8.23,3.46-17.13,4.3-25.91,3.51c-26.02-2.34-49.24,8.14-72.88,15.98
			c-23.22,7.7-46,16.23-71.02,15.89c-25.98-0.35-50.43,4.97-72.28,20.16c-7.34,5.1-16.39,6.22-25.34,5.56
			c-10.1-0.74-15.52,3.55-17.44,13.8c-1.82,9.74-3.34,19.74-10.12,27.61c-8.8,10.2-14.79,9.01-19.52-4.08
			C495.01,1195.71,491.25,1182.93,492.72,1169.73z"/>
		<path d="M36.66,515.35c6.31-61.52,106.97-233.28,166.81-284.61c-5.34,20.06-12.54,38.37-19.73,56.75
			c-12.83,32.77-25.78,65.56-34.15,99.85c-4.72,19.32-9.53,38.68-11.6,58.48c-1.52,14.51-9.69,22.79-22.2,28.16
			C88.59,485.67,63.4,501.16,36.66,515.35z"/>
		<path d="M1140,125.11c68.14,45.12,127.43,99.45,177.3,165.94c-22.98-3.97-45.05-3.98-66.69-8.41c-7.92-1.62-16.42-0.98-24.61-0.52
			c-16.34,0.92-26.78-7.35-34.11-20.79c-12.18-22.34-17.24-47.3-25.9-70.93C1157.96,168.47,1149.75,146.58,1140,125.11z"/>
		<path d="M1322.46,713.43c2.18,12.82-4.77,22.12-16.64,28.88c-9.29,5.29-15.51,12.98-19.06,23.33
			c-4.44,12.95-11.05,24.82-20.82,34.73c-2.51,2.55-5.04,4.89-8.66,3.27c-4.02-1.79-2.92-5.72-2.41-8.89
			c2.59-15.84,3.97-31.84,6.33-47.73c2.16-14.52-4.09-28.09-10.82-40.57c-8.06-14.94-11.15-31.08-14.08-47.34
			c-2.49-13.8-2.2-27.82-2.03-41.8c0.04-3.5,0.33-6.92,3.59-8.69c3.56-1.94,5.92,1.51,7.74,3.36
			c18.93,19.26,41.71,34.39,59.79,54.32C1316.58,678.64,1323.08,694.35,1322.46,713.43z"/>
		<path d="M1364.24,631.89c-2.87,25.64-0.73,53.22-3.94,80.46c-1.18,10.03-4.36,20.37-9,29.34c-10.72,20.72-19.38,42.13-26.54,64.28
			c-1.63,5.06-3.07,12.43-11.03,10.33c-6.47-1.71-10.72-12.25-8.89-19.07c3.39-12.66,12.07-22.24,19.22-32.67
			c18.47-26.96,27.04-56.75,23.56-89.13c-3.74-34.84-16.99-66.87-32.79-97.87c-7.54-14.79-15.69-29.24-24.69-43.21
			c-1.61-2.5-2.57-5.51-3.43-8.4c-2.4-8.04,0.02-11.19,8.46-11.33c22.35-0.37,37.98,10.94,48.65,29.38
			C1359.2,570.59,1363.42,600.04,1364.24,631.89z"/>
		<path d="M895.48,992.82c-10.01-8.01-20.21-15.81-29.99-24.1c-13.58-11.5-27.22-22.98-40.12-35.22
			c-9.63-9.13-18.13-19.45-27.13-29.22c-1.85-2.01-3.53-4.24-5.64-5.92c-5.57-4.42-9.27-3-10.63,4.04
			c-2.38,12.34-2.79,25.19-11.55,35.6c-8.38,9.96-18.66,15.72-32.97,17.33c7.1-8.93,16.72-13.02,22.27-21.89
			c6.97-11.15,7.38-22.56,3.42-33.84c-6.26-17.8-17.25-31.68-36.69-37.1c-9.58-2.67-10.34-6.56-3.72-13.96
			c6.26-7.01,20.35-9.49,31.14-4.54c22.91,10.51,42.27,25.72,57.42,45.97c19.04,25.45,39.34,49.77,61.78,72.35
			C881.89,971.22,890.19,980.79,895.48,992.82z"/>
		<path d="M701.24,1231.33c-11.08,0.69-22.46-7.87-34.97-12.75c-4.64-1.81-9.35-4-13.98-6.12c-3.29-1.5-7.49-2.15-7.48-6.77
			c0.01-4.46,4.22-5.6,7.29-7.29c10.4-5.69,22.01-7.71,33.27-10.86c23.76-6.65,47.92-10,72.57-10.08c4.41-0.01,9.42-0.22,10.71,4.7
			c1.25,4.75-2.97,7.71-6.72,9.81c-7.32,4.1-14.63,8.26-23.22,9.36c-4.17,0.53-6.05,3.11-6.42,7.47
			c-0.46,5.49,2.65,11.66-2.77,16.36C724.9,1229.15,713.79,1232.02,701.24,1231.33z"/>
		<path d="M701.52,921.16c0.91,0,1.86-0.15,2.73,0.02c6.79,1.36,15.11,2.78,16.68,9.87c1.7,7.66-6.87,9.81-12.42,12.3
			c-5.94,2.66-11.85,5.41-18.89,5.57c-11.89,0.26-20.63,7.5-28.84,15.36c-1.78,1.71-3.4,5.84-6.26,3.71
			c-2.98-2.22-2.97-6.45-1.78-10.15c3.23-10.01,8.73-18.82,17.21-24.81C679.27,926.45,689.36,920.71,701.52,921.16z"/>
		<path d="M498.6,960.88c-13.77,46.38-27.96,92.49-42.43,138.52C457.16,1049.08,469.57,1002.32,498.6,960.88z"/>
		<path d="M1236.09,568.65c0.54-6.31,0.5-14.82,6.77-21.59c3.9-4.21,5.96-3.57,8.14,1.81c1.65,4.07,1.55,8.26,2.39,12.34
			c2.73,13.31,9.79,24.43,16.86,35.56c1.99,3.14,4.67,6.5,2.44,9.62c-2.26,3.16-6.69,1.88-10.1,0.97
			C1247.02,603.19,1236.04,587.87,1236.09,568.65z"/>
		<path d="M540.26,965.75c0-7.59,6.04-13.35,12.88-11.18c11.63,3.68,22.58,8.93,30.77,18.49c2.19,2.55,4.74,5.85,3.15,8.86
			c-1.43,2.69-4.95,0.16-7.55-0.07c-8.16-0.71-16.3-1.53-24.47-2.11C546.55,979.13,540.26,973.3,540.26,965.75z"/>
		<path d="M748.9,634.27c-23.36,7.12-34.75,29.93-56.7,40.05c0.05-6.54,5.25-8.87,7.92-12.21c12.61-15.76,23.35-34.19,43.03-42.06
			c16.1-6.44,33.12-10.88,50.04-14.9c29.47-7,59.24-12.72,89.78-11.71c18.26,0.6,37,1.89,52,13.08
			c10.84,8.09,22.58,12.25,34.92,16.31c8.81,2.9,11.1,13.74,4.39,22c-8.93,10.98-20.46,18.69-34.07,23.06
			c-2.48,0.8-5.04,0.92-6.59-1.47c-1.29-2.01,0.55-3.89,1.22-5.77c0.19-0.55,0.8-0.93,1.07-1.47c9.19-18.05,6.32-25.13-16.37-26.96
			c-11.66-0.94-22.78,3.7-33.11,10.66c-13.84,9.34-29.85,13.81-46.47,16.51c-20.97,3.4-41.94,0.52-62.9,1.47
			c-14.74,0.66-28.36,5.73-42.36,9.39c-3.15,0.83-7.29,3.78-9.25,0.92c-2.29-3.35,0.84-7.25,3.24-10.38
			C735.43,651.95,742.16,643.11,748.9,634.27z M790.18,651.86c0,0.02,0,0.03,0,0.05c7.89,0,15.79-0.04,23.68,0.02
			c4.24,0.03,6.21-1.58,2.93-5.15c-7.97-8.66-12.32-18.98-14.29-30.31c-0.82-4.75-2.29-4.85-6.58-3.72
			c-16.04,4.23-26.16,15.57-35.09,28.29c-3.68,5.24-0.95,10.29,5.68,10.71C774.37,652.23,782.29,651.86,790.18,651.86z
			 M886.32,621.01c-0.42,12.11-0.41,12.12,10.7,8.05c2.28-0.83,4.49-1.89,6.82-2.51c4.89-1.28,10.63-3.63,10.86-8.25
			c0.21-4.36-6-6.19-10.11-8.04C891.16,604.21,886.81,606.82,886.32,621.01z M829.27,629.11c-4.18,0.52-6.79,2.25-6.97,6.26
			c-0.2,4.35,2.44,5.66,6.34,5.7c3.98,0.04,6.43-1.42,6.37-5.7C834.94,631.33,832.56,629.49,829.27,629.11z"/>
		<path d="M886.32,694.94c-39.25,17.63-79.19,21.21-120,5.54C806.4,700.45,846.44,699.45,886.32,694.94z"/>
		<path d="M504,717.82c-12.05-2.67-19.6-14.01-33.38-12.11c3.07,5.76,7.9,6.95,11.73,9.44c3.81,2.47,8.33,5.33,7.44,10.42
			c-0.83,4.69-5.86,6-9.97,6.76c-33.07,6.1-63.39,20.83-95.42,30c-19.15,5.48-39.33,7.08-59.27,2c-15.8-4.03-19.96-2.33-29.14,11.46
			c-1.19,1.79-2.59,4.95-5.44,3.82c-2.22-0.88-2.72-3.66-3.02-6.18c-2.48-20.51,7.04-38.28,25.56-49.3
			c18.47-10.98,38.87-16.54,59.47-20.56c31.91-6.22,64.31-8.66,96.88-7.51C484.5,696.59,497.3,701.18,504,717.82z M355.41,758.11
			c5.17,0,10.34,0.07,15.51-0.04c1.71-0.04,3.99,0.57,4.85-1.52c0.89-2.18-1.14-2.95-2.56-4.09c-8.66-6.92-16.17-14.6-18.38-26.18
			c-0.78-4.07-3.62-5.2-7.5-3c-7.35,4.17-14.96,7.93-22.1,12.43c-3.89,2.46-6.76,6.58-6.41,11.42c0.4,5.5,5.44,6.7,9.67,8.29
			C337.2,758.71,346.32,758.42,355.41,758.11z M437.61,718.29c0,2.09,0.18,3.63-0.03,5.11c-1.11,7.67,1.01,11.12,9.13,7.38
			c1.6-0.74,3.89-0.5,5.04-1.59c3.07-2.88,9.5-1.03,9.99-7.65c0.47-6.32-4.53-8.18-8.21-10.77c-4.06-2.86-8.77-7.62-13.71-5.13
			C434.85,708.13,438.93,714.43,437.61,718.29z M381.32,745.35c4.15-0.25,6.29-2.84,6.65-6.29c0.39-3.74-1.71-6.24-5.78-6.48
			c-3.79-0.23-6.49,0.92-6.77,5.28C375.13,742.27,377.46,744.45,381.32,745.35z"/>
		<path d="M456.64,765.33c-6.28,17.69-35.59,36-53.43,34.25C420.2,786.85,437.87,777.56,456.64,765.33z"/>
	</g>
</g>
</svg>
