<?xml version="1.0" encoding="utf-8"?>
<!-- Generator: Adobe Illustrator 27.6.1, SVG Export Plug-In . SVG Version: 6.00 Build 0)  -->
<svg version="1.1" id="Layer_1" xmlns="http://www.w3.org/2000/svg" xmlns:xlink="http://www.w3.org/1999/xlink" x="0px" y="0px"
	 viewBox="0 0 1469 1469" style="enable-background:new 0 0 1469 1469;" xml:space="preserve">
<style type="text/css">
	.st0{fill:#FFFFFF;}
</style>
<circle class="st0" cx="734.5" cy="734.5" r="734.5"/>
<g>
	<g>
		<path d="M195.9,536.2c23.9-14.8,49.1-27,74.7-38.2c33-14.4,67.4-24.8,101.6-35.7c37.1-11.8,74.3-23,112-33.1
			c33.9-9,68.2-15.3,102.5-22.2c25.2-5,50.9-7.4,76-13.3c16.4-3.9,33.6-4.7,50.5-6.2c17.2-1.5,34.2-5.2,51.6-6.1
			c17.3-0.9,34.5-4,51.8-4.9c53.4-2.7,106.7-6.6,160.2-7.2c49.1-0.5,98.3,1.2,146.1,12.9c40.8,9.9,77.8,28.2,106.6,60.2
			c15.1,16.8,34.2,24.1,56.1,27.9c15.9,2.7,31.5,8.6,43.9,21.1c-5.9,4.3-11.8,0.8-16.8,0c-45-7.5-87.8,19.5-97.4,68.9
			c-6.9,35.9-5.7,71.1-0.2,107c4.5,30,13.3,58.8,20.6,88c4.5,18.3-6.8,44.9-25.4,51.9c-9.8,3.7-19.4,6.2-29.9,6.3
			c-14.2,0.1-17.8-5-13.3-18.5c6.4-19.4,14.4-38.4,18.2-58.6c7.3-38.9,3.7-76.9-13.8-112.6c-6.9-14-16.9-26.5-25.5-39.8
			c-2-3-4-6.1-5.6-9.3c-5.9-12.1-6.3-12.8-18-5.9c-18.5,11-39.4,17.3-57,30.1c-8.7,6.4-11.3,4.6-16.9-5.1
			c-9.5-16.5-12-35.3-18.3-52.9c-0.8-2.3-1.3-4.9-2.8-6.6c-2-2.1-5.2-4.5-8-3.1c-3.8,1.9-0.1,4.7,0.7,6.8
			c6.9,19.3,10,39.7,17.4,58.8c3.7,9.5,0.6,18.6-7.2,23.2c-14.2,8.5-16.2,22.5-20.3,36c-3.2,10.6-4.7,21.7-9.7,32
			c-7.4,15.4-19.8,25.6-34.2,32.8c-21.4,10.7-43.4,19.8-66.3,26.9c-24.2,7.5-48.3,15.9-73.2,20.3c-37.4,6.7-74.7,14.3-113.1,12.2
			c-22.9-1.3-40.9-10.8-55.3-28.8c-13.1-16.4-26.5-32.6-39.2-49.2c-5.1-6.6-6.7-15.6-14.7-20.3c-13.5-8-27.1-6-40.1,0
			c-10.8,5-14.4,15.1-15.3,27c-1.7,23-2.2,46.3-7.5,68.8c-4.9,20.9-17.2,37.8-35.4,50.1c-27.6,18.8-59.4,26.3-90.9,35.2
			c-23.9,6.8-48.3,11.1-72.7,15.4c-25.5,4.6-51.5,6.2-77.2,1c-17.5-3.6-30.4-15.1-42.7-27.2c-3.3,1.7-2.4,4.5-2.1,6.6
			c5.3,29.1,11.2,58.2,24,85.1c8.2,17.2,17.5,33.8,22.2,52.4c1.7,6.7,4.2,13.2,2.6,20.8c-7.4-1.7-9.6-8.6-13-13.3
			c-8.4-11.8-15.6-24.5-21.3-37.9c-7.4-17.7-18.3-33-32.4-45.9c-17.1-15.7-25.2-34.3-21.5-57.9c2.3-14.6-0.8-29.3-1.7-43.9
			c-0.2-3.8-3.7-7.5-5.6-11.2c-6.4-12.8-6.1-27.1-8.6-40.7c-2.3-12.2-3.2-24.6-4.9-37c-1-7.4-1.6-14.6,4.4-20.5
			c2.1-2.1,1.9-4.3,1.1-7.4c-4.1-15.7-9.9-30.9-12.2-47.3c-4.2-30.1,0.7-58.4,11-86.5c2.8-7.6,7.6-13.8,11.1-20.8
			c1.4-2.7,4.1-5.2,7.4-4.1c3.2,1.1,2.3,4.7,2.2,7.3c-0.6,14.3-1.6,28.7-1.9,43c-0.6,32,3,63.6,11.2,94.6c1.7,6.3,4.7,8.3,10.8,6.2
			c13.3-4.6,25.4-10,34-22.5c13.1-18.8,33.6-28.2,53.7-37.7c19.3-9.1,39.6-10.5,60.2-11.2c35.5-1.2,70.6,4,106,5
			c36.8,1,73.7,3.2,109.8-6.9c27.8-7.8,53.9-19.7,78.1-35.6c13.2-8.6,26.6-17,40.4-24.6c18-9.9,35-21.5,53.8-30.2
			c22.1-10.3,44.7-17.4,69.1-20c26.7-2.9,52.8-1.1,78.5,5.8c23.5,6.3,46.9,4.5,70.5,1c5.1-0.8,10.3-0.9,15.5-0.9
			c23.2,0.2,45.9-3.5,68.8-6.9c18.9-2.9,37.8-5.3,56.8-7.4c8.5-1,7-4.7,3.6-9.6c-12.8-18.5-28.8-33.7-48.8-44.1
			c-29.8-15.5-60.7-28.5-93.1-37.7c-47.7-13.5-96.4-17.2-145.5-15.3c-32.8,1.3-65.5,5.6-98.3,8.7c-31.8,3-63.6,5.9-95.4,9.5
			c-20.8,2.4-41.4,7-62.2,8.6c-29.4,2.3-58.2,8.2-86.6,15.5c-27.2,6.9-54.1,14.9-80.5,24.4c-19.3,7-39.2,12.4-58.5,19.4
			c-40.9,14.9-82.5,28.3-121.2,49C209,533.2,203.1,536.5,195.9,536.2z M735.7,758.5c21.8,0.1,40.8-3.5,60-6.8
			c47.4-8.4,93.5-21.2,138.7-37.3c18.2-6.5,35.1-15.4,46.4-32c9.4-13.9,9.8-29.7,9.1-45.7c-0.7-17.2-4.7-33.8-12.5-48.8
			c-17.5-33.4-48.9-41.1-83-41.3c-27.8-0.2-54.8,6.6-81.7,12.8c-35.6,8.2-70.8,18.2-105,30.9c-26,9.7-50.6,21.3-66.6,45.9
			c-8.6,13.2-9.9,32.3-1.2,44.7c9,12.9,17.3,26.3,26.3,39.2C683.7,745.2,704.9,762.4,735.7,758.5z M297.7,859.3
			c2.1,0,5.3,0.4,8.3-0.1c34.4-5.2,68.9-9.1,102.8-17.8c26.1-6.7,51.8-14.3,76.5-24.9c22.9-9.8,36-27.2,38.4-52.9
			c1.8-19.6,0.9-39.1-2.5-58.1c-5.4-29.8-17-44.6-49.1-50c-27.5-4.6-54.6,1.4-81.7,4.7c-26.1,3.1-51.8,9.1-76.9,17.3
			c-22.1,7.2-45,12.3-65.1,24.5c-16.6,10.1-30.2,23-31.6,43.8c-1.9,30.4,4.4,58.8,23,83.7C254.1,848.7,272.2,860.2,297.7,859.3z"/>
		<path d="M142.5,459.2c22.3-21.2,50.2-32.6,76.1-47.5c-25.7,4.4-48.7,16.2-72.6,25.9c25.9-22.5,56.9-36.3,87-51.8
			c-24.6,3.3-47.1,13.6-70.6,21.1c27.4-22.3,59.3-36.6,91.2-51.2c-12.1-0.3-23.1,3.8-34.4,7.2c-11.4,3.5-22.2,9-34.3,11
			c25-21.9,55.6-33.1,85.6-45.5c-21.9,0.2-41.8,7.8-62,14.4c22.6-19.3,51-27.5,77.9-40.4c-6.8-2.6-12.5-0.1-17.8,1.2
			c-5.8,1.5-11.5,3.8-17.4,5.1c-5.8,1.3-11.6,3.1-17.5,4.1c10.6-9.2,23-15.5,35-22.2c38.1-21.4,78.2-38.3,119.8-51.9
			c35.9-11.7,71.4-24.3,108-33.7c29.7-7.6,59.6-14.4,89.3-21.9c22.3-5.6,45-8,67.3-13.3c15.5-3.7,31.7-5.1,47.7-6.2
			c38.7-2.7,77.5-4.5,116.3-3.9c30.7,0.5,61.4,2.9,91.4,9.6c37.9,8.6,74.6,21.5,110.8,36.1c23,9.3,45.9,18.8,68.4,29.2
			c22.2,10.3,44.1,21.3,65,34c1.8,1.1,3.6,2.3,5.2,3.7c2,1.8,5.1,3.7,3.9,6.6c-1.3,3.3-4.9,2.8-7.9,2.4c-57-6.5-114.2-4-171.3-2
			c-37.2,1.3-74.2,6.2-111.3,8.4c-31.7,1.8-63,6.6-94.4,9.9c-37.7,3.9-75.2,9.8-112.6,15.9c-23,3.8-46.1,7-68.9,11.6
			c-34.3,6.9-68.6,14.2-102.6,22.4c-29.9,7.1-59.6,15.2-89.2,23.5c-37.7,10.5-75.4,21.2-112.9,32.7c-42.8,13.2-84.3,29.9-125.4,47.6
			C158,454.6,150.1,456.6,142.5,459.2z"/>
		<path d="M532,1438.8c-127.9-36.6-237.6-103.4-328.6-199.9c-90.7-96.2-150.9-209.3-181-338.9c23,5.9,45.3,13.2,68.4,17
			c28.4,4.6,56.4,12,85.5,12.2c13.1,0.1,22.3,11.3,25.8,27.2c9.1,41.1,26.1,78.5,53.8,110.5c4,4.6,9.4,7.4,13.2,12.4
			c6.4,8.3,6.7,17.5,3.6,25.8c-7,18.4,2,33.1,8.9,48.4c1.8,4,5.5,7.2,8,10.9c4.3,6.4,10.2,8.8,17.8,8.8c19.2,0,22.1,1.3,26.1,19.2
			c8.8,39.6,31.6,71.4,54.9,103.2c29.7,40.6,62.5,78.4,101.3,110.6C503.4,1417.7,516,1430.4,532,1438.8z"/>
		<path d="M1243.3,872.6c6,8.3,5.5,17.6,8.2,25.8c7,21.2,23.2,31.2,43.2,35.9c8.6,2,16.7-3.4,22.3-8.9c17.1-16.9,26-37.5,19.7-61.9
			c-4-15.5-4.2-29.4,5.7-43c13.6-18.4,18.4-40.5,25.2-61.8c7.9-24.8,11.3-50.2,11.6-76.1c0.1-10,4.7-18.7,13.2-23.7
			c21.4-12.6,42.9-25.1,63.9-38.4c0.7-0.5,1.7-0.5,2.9-0.8c4.3,12.8,4.4,26.3,5.7,39.4c2.6,26.7,4.3,53.5,4,80.4
			c-0.4,35.4-2.2,70.8-7.6,105.7c-7,45.3-18.1,89.9-33.2,133.3c-9.3,26.8-20.2,53.2-32.9,78.6c-14.5,29-30.3,57.3-48.6,84.2
			c-2.8,4.1-5,4-8.7,2.3c-13.5-6-22.9-16.5-28.3-29.6c-10.8-26.2-20.1-53-28.2-80.2c-6.6-22.3-12.2-44.7-16.9-67.4
			c-1.6-7.4-1.6-15.1-2.2-22.7c-0.3-4.4-1.4-7.3-5.9-10.1c-10.1-6.2-15.6-15.7-15.1-28.2C1241.6,894.8,1239.9,883.9,1243.3,872.6z"
			/>
		<path d="M672.6,1465.6c26,0.5,47.1-10.6,69.4-18.1c11-3.7,22.9-2.8,34.5-2.6c19.5,0.3,38.9,1.2,57.8-5.2
			c28.5-9.6,55.3-22.4,80.8-38.4c24.7-15.5,48.1-32.8,70.8-51c20.5-16.4,40.5-33.6,62.2-48.6c13-8.9,26-17.7,38.9-26.7
			c24.2-16.9,45.9-36.4,65.2-58.7c16.9-19.5,32.2-40.3,47.5-61.1c2.1-2.9,4.6-9.3,9.3-6.7c3.1,1.7,0.6,7.1-0.4,11
			c-10.4,39-28.2,75.1-42.9,112.4c-9.2,23.3-19.4,46.3-28.2,69.8c-3.9,10.5-12.1,15.6-20.6,20.7c-23.7,14.1-48,27.1-73.1,38.7
			c-38.2,17.7-77.5,31.9-118.2,42.7c-40.2,10.6-80.8,18.1-122.3,21.8c-42.5,3.8-84.8,3.4-127.2,1.5
			C675.5,1467.1,675,1466.7,672.6,1465.6z"/>
		<path d="M494.2,1170.5c-2.2-9.6,1.4-18.3,5.4-26.9c1.6-3.6,3.1-8,7.6-8.4c5.2-0.5,5.7,4.7,7.4,8c6.3,13,16.5,19.4,28.7,17.2
			c9.1-1.6,13.7-9.6,20.3-14.8c22.1-17.3,46.2-29.8,74.9-30.8c6-0.2,12.1,0.9,18.1,1.8c17.8,2.8,32.5-4.7,45-15.4
			c14.2-12.2,29.6-17.7,48.2-17.6c35.5,0.1,70.9,2.3,106.4,0c5.8-0.4,11.4-1.8,16.7-4c9.2-3.8,10-9.2,2.2-15.1
			c-5.1-3.8-8.1-9.1-11.5-14.1c-6.8-9.8-2.5-18.4,9.4-20.2c17.1-2.6,35.5,5.8,44.6,20.5c14.1,22.7,9.5,46.2-11.5,61.4
			c-3.7,2.7-7.3,3.3-11,2.1c-4.3-1.4-2.5-5.7-2.6-8.8c-0.2-5.5-0.5-11,1.1-16.4c0.8-2.7,1-5.7-2.1-7.3c-2.4-1.3-4.9-0.4-6.8,1.3
			c-18.6,16.9-43.6,18.7-65.5,27.6c-13.2,5.3-27.2,6.3-41.3,5.6c-18.5-0.9-34.8,7-51.8,12.3c-18.7,5.8-36.8,13.5-56.5,16.6
			c-8.8,1.4-17.4,2.8-26.3,2.6c-25.3-0.7-48.6,5.7-69.7,19.8c-7.7,5.2-16.4,6.7-25.3,5.8c-9.7-1-14.6,2.6-16.2,12.4
			c-1.5,8.9-5.3,17.2-9,25.5c-2.5,5.5-6.8,9.3-12.4,9.5c-6.6,0.3-7.7-6.2-9.1-10.9C497.8,1197.1,492,1184.7,494.2,1170.5z"/>
		<path d="M205.4,231.2c-5.5,24.8-14.6,45.8-22.9,67.2c-8.1,20.8-15.9,41.7-22.8,63c-9.7,30-16.1,60.6-20.3,91.8
			c-1.3,9.3-7.5,16.6-14.9,19.7c-29.6,12.5-57,29.2-87.6,45.5C71.6,408.8,127.3,314.7,205.4,231.2z"/>
		<path d="M1141.2,125.9c69,46,127.2,100.3,177.1,165.5c-9.1,1.8-16.7-1-24.3-1.7c-23.9-2.2-47.7-5.3-71.8-5.4
			c-10.4,0-18.6-6.8-24.6-15.2c-10.6-14.8-14.8-32.3-20.5-49.1c-9.6-28.6-18.9-57.4-32.6-84.4
			C1143.3,133.2,1142.7,130.5,1141.2,125.9z"/>
		<path d="M1324.2,713.8c2.2,14.5-4.8,24.1-16.8,30.6c-10.1,5.4-15.7,14.4-19.2,24.5c-4.3,12.3-10.8,23-19.3,32.6
			c-2.6,2.9-5.7,6.5-10.2,4.1c-4.5-2.4-2.5-7-1.9-10.7c3.2-20.6,7.8-41.1,4.9-62.3c-1.4-10-6.7-18.1-10.9-26.7
			c-8.2-16.4-10.8-34.1-12.8-51.7c-1.2-10.5-3.1-21.2-2.1-31.9c0.4-3.9-0.2-8.7,3.9-10.3c4.4-1.7,8.1,1.5,11.1,4.6
			c12.6,13.2,25.9,25.9,40.5,36.6c16.3,11.9,25.8,27.5,31.3,46.3C1324.3,704.3,1323.7,709.1,1324.2,713.8z"/>
		<path d="M1366,634c-3.7,27.7,0.8,58.6-5.4,88.7c-3.2,15.6-11.2,29.3-18.1,43.5c-6.1,12.5-11.2,25.4-14.2,39
			c-0.1,0.6-0.4,1.2-0.6,1.7c-1.8,5.6-4.3,11.4-11,11c-6.6-0.4-12.2-11-10.5-17.9c2.9-11.9,10.7-21.2,17.6-30.7
			c22-29.9,31-63.6,25.2-99.5c-5.3-33.1-18.1-64.5-34.3-94.1c-8.1-14.8-16-29.8-25.1-44.1c-2.5-4-4.1-10.1-0.1-13.7
			c5.1-4.5,12.4-2.8,18.2-1.2c22.1,5.9,36.1,21,44.6,41.8C1362,581.9,1365.6,606.4,1366,634z"/>
		<path d="M896.7,994.6c-20.4-17.3-40.6-34.8-61.4-51.7c-15-12.2-25.8-28.1-39.5-41.4c-2-2-3.6-4.3-6.8-3.5
			c-3.6,0.8-4.4,3.6-4.9,6.8c-1.1,6.6-1.9,13.2-3.6,19.6c-5,18.3-18.6,27.6-35.6,33.1c-1.5,0.5-3.2,1-4-0.6
			c-1.2-2.2,0.9-3.2,2.4-4.1c7.5-4.4,13.6-10.2,18.6-17.2c7.7-11,7.6-23.1,3.2-34.8c-6.1-16.1-15.6-29.3-33.2-35
			c-4.4-1.4-11.5-2.6-11-9.1c0.5-6.4,6.5-9.3,12.1-11.1c13.7-4.4,25.5,0.9,37.1,7.5c23.7,13.4,39.9,34.3,56.1,55.3
			c15.3,19.9,32,38.7,49.6,56.7C884,973.5,892.5,982.2,896.7,994.6z"/>
		<path d="M747.9,1180.7c6.2,0,11.7-0.1,17.2,0c6.3,0.2,7,3.4,4.3,8.5c-1.4,2.6-3.2,4.5-5.8,5.6c-6.9,2.8-13.4,6.7-20.9,8.1
			c-5.7,1.1-8.7,4.1-8.5,10.7c0.4,14.8-2.8,16.7-17.8,18.8c-25.6,3.6-45-11.3-66.3-20.4c-5.7-2.4-4.3-6,0.7-9.2
			c14.2-9.2,30.8-12,46.6-15.9C714,1182.7,731.2,1179.7,747.9,1180.7z"/>
		<path d="M656.3,969.9c-5.6-19,13.9-36.3,27.5-42c10.7-4.4,21.9-6.9,33.2-0.6c8.4,4.7,8.4,7.6,1.4,13.7c-7.6,6.5-16.7,9.1-25.8,9.8
			c-11.8,1-20.5,6.2-27.9,14.6C662.4,968,660,970.1,656.3,969.9z"/>
		<path d="M458.6,1100.6c0-50.1,13.8-96,42-137.4C486.3,1008.9,473.5,1055,458.6,1100.6z"/>
		<path d="M1237.7,570.8c1.7-6.3,2.1-14.2,6-21.2c1-1.8,2.4-3.8,4.8-3.8c2.5,0.1,3.4,1.9,3.8,4.3c2.6,18.3,10.4,34.5,20.4,49.8
			c1.7,2.6,4.3,5.8,1.7,9.1c-2.8,3.5-6.6,2-10.1,0.7C1248.2,603.8,1237.4,588.7,1237.7,570.8z"/>
		<path d="M582.3,984.3c-10.2-1.3-20.5-2.3-30.6-3.8c-5.7-0.8-11.2-9.8-9.5-15.3c2.2-6.8,6.8-9.2,14.1-7.8
			c12.2,2.3,21.1,9.9,29.9,17.7c2.1,1.8,3.7,4.5,3,7.2C588.2,986.1,584.5,983.3,582.3,984.3z"/>
		<path d="M751.7,634c-11.3,4-18.7,10.4-25.4,17c-8.3,8.1-17.4,15.2-26,22.9c-1.7,1.5-3.6,2.8-5.6,1c-1.3-1.3,0-2.8,1.1-3.9
			c12.7-12.9,21.9-28.9,36.2-40.5c9.8-8,21-12.2,32.6-15.1c23.4-5.9,46.5-12.7,70.5-16.2c28.8-4.3,57.4-6.3,86,1.5
			c10.5,2.9,18.8,9.6,27.5,15.6c5.1,3.5,10.4,5.7,16.6,6.5c6.4,0.8,12.4,3,14.7,10.3c2.2,6.9-1.2,11.3-5.5,16.1
			c-8.6,9.5-18.8,16.1-30.8,20.2c-2.4,0.8-4.8,1.7-6.8-0.4c-2.2-2.3,0.3-4.4,0.8-6.5c0.2-0.9,0.7-1.7,1-2.5c2.7-6.5,6.6-13.6,1-19.7
			c-5.9-6.3-14.4-6.6-22.9-6.2c-15.2,0.7-26,10.9-38.7,16.8c-22.6,10.5-46.8,15.2-70.9,12.9c-25.1-2.4-48.4,2.1-71.8,9
			c-2.9,0.8-6.3,3.4-8.2,0.3c-1.4-2.3,0.6-5.7,2.5-8.3C736.5,655,744.7,646.4,751.7,634z M822.1,653.7
			c-9.1-11.6-16.3-22.1-17.5-35.1c-0.6-6.5-3.5-5.6-7.9-4c-14.9,5.5-25.7,15.8-33.9,28.9c-2,3.2-3.4,9.6,2.8,9.9
			C783.8,654.2,802,653.7,822.1,653.7z M889,622.2c-0.1,0-0.2,0-0.3,0c0,1.2,0.2,2.5,0,3.7c-1.1,7.5,0.2,10,8.5,6.5
			c5-2.1,9.8-4.6,14.7-6.8c6.3-2.8,5.9-7.8-0.2-11.4c-5.2-3-11.2-2.2-16.7-3.9c-4.4-1.3-6.4-0.1-6.1,4.6
			C889.1,617.3,889,619.7,889,622.2z M831.3,631.7c-4,0.1-6.8,1.9-6.7,5.9c0,4.1,2.4,7,6.7,6.8c3.8-0.2,5.8-2.9,6-6.7
			C837.5,633.5,835.1,631.8,831.3,631.7z"/>
		<path d="M766.9,701.2c41.6,1.3,81.7,0.1,123.2-6.6C873.9,712.1,796.9,720.3,766.9,701.2z"/>
		<path d="M504.5,719.7c-7.3-3.7-13.9-6.9-20.2-10.5c-3.4-1.9-7.6-4-9.6-0.7c-2,3.2,3.3,4.1,5.5,5.9c2.3,1.9,5.4,2.9,7.7,4.8
			c6.6,5.5,5.5,11.5-2.9,13.8c-18.4,5-36.8,9.8-54.8,16c-13.4,4.7-26.4,10.3-40.1,14.2c-20.3,5.6-40.6,7.8-61.2,3.7
			c-19.2-3.8-20.7-3.7-31.4,12c-1,1.5-1.7,3.5-4,3.1c-2.6-0.4-3-2.5-3.2-4.8c-2.7-25,4.7-39.2,26-51.4c26.7-15.2,56.4-21,86.8-24.4
			c23.1-2.6,46.2-4.5,69.4-3.3C489.1,698.9,501.4,704.4,504.5,719.7z M357.2,760.2c5.2,0,10.4,0.1,15.5,0c1.7,0,4,0.6,4.8-1.6
			c0.8-2.2-1.3-3.3-2.6-4.3c-4.7-3.5-8.2-7.8-11.9-12.2c-4.5-5.4-2.7-15.8-10.9-16.8c-7.1-0.8-13,5.8-19.4,9
			c-2.4,1.2-4.8,2.6-6.9,4.4c-9.2,7.9-7.7,13.7,3.8,18.2C338.6,760.4,347.9,760.4,357.2,760.2z M438.9,723.1
			c-0.5,12.5-0.5,12.4,10.9,9.7c2.8-0.7,4.9-2.3,7.3-3.4c9.1-4,9.7-7.2,2.3-13.8c-4.7-4.2-10.4-10.1-16.3-8
			C436.9,709.9,440.2,718.3,438.9,723.1z M389.3,740.4c0.2-4.3-2-6.1-6.1-5.8c-4.2,0.2-6.1,2.9-5.8,6.7c0.3,3.6,2.3,6.4,6.5,6.1
			C388.1,747,389.7,744.4,389.3,740.4z"/>
		<path d="M403,802.1c19.5-12.1,36.8-22.9,55.8-34.7C452.8,784.5,423.2,803,403,802.1z"/>
	</g>
</g>
</svg>
