<?xml version="1.0" encoding="utf-8"?>
<!-- Generator: Adobe Illustrator 27.6.1, SVG Export Plug-In . SVG Version: 6.00 Build 0)  -->
<svg version="1.1" id="Layer_1" xmlns="http://www.w3.org/2000/svg" xmlns:xlink="http://www.w3.org/1999/xlink" x="0px" y="0px"
	 viewBox="0 0 1469 1469" enable-background="new 0 0 1469 1469" xml:space="preserve">
<style type="text/css">
	.st1 { fill: #000 }
</style>
<rect fill="#FFFFFF" width="1469" height="1469"/>
<g class="st1">
	<g>
		<path d="M195.94,536.23c23.88-14.83,49.05-26.99,74.73-38.19c33.01-14.39,67.37-24.82,101.64-35.66
			c37.12-11.75,74.31-23.05,111.95-33.09c33.87-9.04,68.19-15.34,102.5-22.17c25.25-5.02,50.89-7.43,76.01-13.32
			c16.43-3.85,33.63-4.68,50.54-6.19c17.25-1.54,34.2-5.18,51.57-6.07c17.3-0.89,34.48-3.97,51.78-4.85
			c53.39-2.73,106.73-6.6,160.21-7.19c49.11-0.55,98.27,1.24,146.11,12.86c40.77,9.9,77.83,28.25,106.59,60.24
			c15.06,16.76,34.21,24.13,56.07,27.89c15.94,2.74,31.48,8.61,43.86,21.1c-5.92,4.28-11.76,0.81-16.85-0.03
			c-44.99-7.45-87.81,19.47-97.37,68.9c-6.95,35.92-5.65,71.1-0.25,106.99c4.51,30,13.32,58.8,20.56,88.02
			c4.53,18.29-6.83,44.93-25.45,51.91c-9.85,3.69-19.41,6.19-29.9,6.28c-14.18,0.12-17.76-4.95-13.26-18.49
			c6.45-19.42,14.42-38.43,18.2-58.63c7.3-38.94,3.73-76.92-13.77-112.64c-6.89-14.05-16.95-26.55-25.52-39.77
			c-1.97-3.04-4.04-6.07-5.63-9.32c-5.94-12.13-6.28-12.85-17.98-5.88c-18.49,11.03-39.39,17.3-57,30.12
			c-8.74,6.37-11.29,4.57-16.87-5.12c-9.51-16.52-12.04-35.34-18.27-52.93c-0.8-2.26-1.28-4.93-2.81-6.57
			c-1.99-2.12-5.24-4.46-7.96-3.08c-3.79,1.92-0.06,4.68,0.72,6.85c6.88,19.29,9.95,39.69,17.35,58.83
			c3.67,9.49,0.59,18.62-7.17,23.24c-14.2,8.45-16.22,22.54-20.32,35.97c-3.25,10.64-4.72,21.7-9.66,31.97
			c-7.4,15.37-19.75,25.57-34.18,32.77c-21.36,10.65-43.39,19.82-66.35,26.94c-24.24,7.52-48.26,15.87-73.25,20.32
			c-37.37,6.65-74.69,14.35-113.07,12.15c-22.86-1.31-40.88-10.8-55.34-28.84c-13.12-16.37-26.47-32.56-39.24-49.22
			c-5.08-6.63-6.72-15.62-14.67-20.32c-13.45-7.95-27.09-6.01-40.06,0.02c-10.85,5.05-14.39,15.12-15.29,27
			c-1.74,23.01-2.16,46.33-7.47,68.8c-4.94,20.93-17.22,37.75-35.35,50.1c-27.6,18.8-59.44,26.27-90.86,35.15
			c-23.9,6.75-48.32,11.07-72.67,15.41c-25.52,4.56-51.49,6.2-77.2,0.95c-17.47-3.57-30.45-15.08-42.72-27.16
			c-3.3,1.66-2.44,4.5-2.06,6.56c5.32,29.12,11.17,58.18,24.04,85.08c8.21,17.15,17.46,33.78,22.25,52.36
			c1.72,6.68,4.16,13.23,2.63,20.84c-7.4-1.67-9.61-8.61-12.96-13.29c-8.42-11.78-15.65-24.49-21.28-37.9
			c-7.44-17.74-18.3-32.97-32.37-45.89c-17.11-15.71-25.19-34.31-21.5-57.88c2.29-14.59-0.76-29.29-1.73-43.9
			c-0.25-3.84-3.69-7.45-5.58-11.21c-6.42-12.8-6.05-27.08-8.59-40.7c-2.28-12.19-3.16-24.64-4.86-36.95
			c-1.02-7.43-1.6-14.6,4.45-20.49c2.14-2.08,1.85-4.31,1.05-7.39c-4.08-15.74-9.95-30.9-12.23-47.28
			c-4.17-30.06,0.74-58.42,11.01-86.49c2.77-7.58,7.57-13.77,11.09-20.79c1.37-2.74,4.15-5.21,7.42-4.12
			c3.24,1.08,2.3,4.65,2.19,7.28c-0.59,14.35-1.62,28.7-1.91,43.05c-0.64,32.02,2.97,63.56,11.18,94.58
			c1.67,6.3,4.71,8.29,10.81,6.15c13.26-4.63,25.35-10.05,34.04-22.53c13.11-18.83,33.56-28.15,53.74-37.72
			c19.27-9.14,39.6-10.49,60.25-11.16c35.48-1.16,70.65,4,106.02,4.98c36.77,1.02,73.72,3.19,109.77-6.86
			c27.85-7.77,53.86-19.72,78.11-35.59c13.19-8.63,26.61-17,40.43-24.57c18.04-9.88,35.03-21.51,53.79-30.25
			c22.11-10.3,44.68-17.38,69.11-20.02c26.74-2.88,52.77-1.12,78.54,5.79c23.48,6.3,46.94,4.53,70.52,0.96
			c5.1-0.77,10.34-0.92,15.5-0.88c23.18,0.17,45.94-3.46,68.76-6.91c18.88-2.85,37.83-5.29,56.81-7.43c8.5-0.96,7.03-4.66,3.63-9.58
			c-12.8-18.53-28.84-33.74-48.79-44.08c-29.81-15.45-60.67-28.45-93.1-37.66c-47.67-13.54-96.44-17.24-145.54-15.26
			c-32.82,1.32-65.52,5.58-98.26,8.68c-31.8,3.01-63.63,5.87-95.37,9.46c-20.8,2.35-41.39,6.96-62.22,8.61
			c-29.44,2.34-58.18,8.23-86.58,15.45c-27.16,6.9-54.1,14.88-80.54,24.4c-19.31,6.95-39.18,12.37-58.46,19.41
			c-40.94,14.94-82.53,28.28-121.16,49.01C208.97,533.19,203.05,536.55,195.94,536.23z M735.66,758.49
			c21.81,0.13,40.76-3.46,59.97-6.85c47.41-8.37,93.46-21.17,138.69-37.27c18.21-6.48,35.13-15.38,46.36-32.04
			c9.36-13.88,9.78-29.67,9.14-45.7c-0.68-17.23-4.71-33.82-12.55-48.84c-17.45-33.44-48.91-41.06-83.02-41.35
			c-27.8-0.24-54.79,6.61-81.66,12.78c-35.6,8.18-70.76,18.17-105.04,30.93c-26.01,9.68-50.62,21.31-66.6,45.91
			c-8.6,13.24-9.88,32.33-1.25,44.72c9,12.9,17.28,26.27,26.32,39.16C683.74,745.23,704.94,762.44,735.66,758.49z M297.73,859.32
			c2.15,0,5.27,0.39,8.26-0.06c34.39-5.19,68.93-9.14,102.8-17.78c26.1-6.66,51.79-14.33,76.47-24.88
			c22.85-9.77,36.01-27.25,38.4-52.9c1.82-19.6,0.9-39.08-2.54-58.09c-5.39-29.83-16.95-44.59-49.06-49.98
			c-27.49-4.61-54.65,1.43-81.72,4.65c-26.07,3.1-51.77,9.09-76.87,17.26c-22.08,7.18-44.97,12.3-65.08,24.51
			c-16.6,10.08-30.25,22.99-31.59,43.82c-1.95,30.41,4.37,58.8,23,83.74C254.07,848.72,272.19,860.22,297.73,859.32z"/>
		<path d="M142.5,459.24c22.27-21.17,50.17-32.62,76.11-47.53c-25.69,4.37-48.71,16.21-72.58,25.86
			c25.88-22.53,56.87-36.32,86.96-51.83c-24.64,3.32-47.11,13.59-70.56,21.15c27.41-22.34,59.26-36.65,91.18-51.19
			c-12.14-0.27-23.07,3.77-34.36,7.18c-11.45,3.46-22.19,9.03-34.27,10.96c24.97-21.85,55.59-33.1,85.61-45.53
			c-21.9,0.17-41.77,7.84-62.02,14.44c22.6-19.32,50.97-27.46,77.93-40.39c-6.8-2.62-12.49-0.12-17.75,1.21
			c-5.8,1.46-11.45,3.79-17.38,5.11c-5.83,1.3-11.55,3.09-17.54,4.13c10.57-9.24,23.02-15.48,35-22.21
			c38.1-21.44,78.25-38.3,119.83-51.85c35.87-11.69,71.38-24.31,108.03-33.69c29.71-7.61,59.59-14.41,89.3-21.89
			c22.29-5.62,45.05-7.96,67.34-13.28c15.52-3.71,31.71-5.13,47.7-6.24c38.71-2.67,77.49-4.46,116.32-3.86
			c30.74,0.48,61.44,2.86,91.38,9.65c37.94,8.61,74.63,21.52,110.77,36.06c23.02,9.26,45.9,18.77,68.38,29.24
			c22.18,10.33,44.06,21.27,65.01,33.98c1.81,1.1,3.58,2.31,5.16,3.72c2.01,1.79,5.08,3.7,3.94,6.65c-1.28,3.32-4.95,2.78-7.91,2.44
			c-57.03-6.55-114.22-3.95-171.31-2c-37.15,1.27-74.16,6.24-111.31,8.35c-31.66,1.8-62.95,6.57-94.42,9.85
			c-37.71,3.92-75.19,9.79-112.62,15.89c-22.99,3.75-46.09,7.02-68.91,11.6c-34.32,6.89-68.57,14.24-102.63,22.35
			c-29.91,7.12-59.6,15.21-89.22,23.48c-37.74,10.54-75.45,21.22-112.9,32.73c-42.79,13.16-84.29,29.89-125.38,47.63
			C158.01,454.59,150.14,456.65,142.5,459.24z"/>
		<path d="M531.99,1438.83c-127.9-36.56-237.6-103.4-328.6-199.86c-90.73-96.18-150.91-209.33-181.02-338.93
			c23.02,5.92,45.26,13.23,68.42,17.02c28.41,4.64,56.37,12.05,85.46,12.22c13.13,0.08,22.27,11.26,25.82,27.24
			c9.11,41.07,26.09,78.46,53.83,110.55c3.98,4.6,9.39,7.4,13.25,12.4c6.39,8.29,6.74,17.46,3.58,25.78
			c-6.98,18.39,1.95,33.13,8.89,48.45c1.82,4.02,5.51,7.17,8.01,10.93c4.27,6.43,10.23,8.79,17.77,8.79
			c19.17,0.01,22.14,1.29,26.13,19.23c8.8,39.61,31.65,71.43,54.9,103.15c29.73,40.55,62.5,78.43,101.29,110.6
			C503.35,1417.72,516,1430.44,531.99,1438.83z"/>
		<path d="M1243.3,872.57c6.04,8.32,5.48,17.57,8.2,25.82c6.98,21.15,23.19,31.17,43.23,35.94c8.58,2.04,16.68-3.36,22.26-8.86
			c17.13-16.91,26.03-37.52,19.67-61.88c-4.04-15.48-4.25-29.44,5.74-42.99c13.55-18.36,18.41-40.51,25.2-61.75
			c7.92-24.76,11.31-50.19,11.56-76.14c0.1-10.04,4.7-18.7,13.18-23.67c21.44-12.56,42.88-25.1,63.87-38.4
			c0.73-0.46,1.74-0.46,2.95-0.76c4.28,12.85,4.43,26.31,5.7,39.43c2.6,26.7,4.27,53.52,3.97,80.39
			c-0.39,35.37-2.15,70.76-7.56,105.65c-7.03,45.33-18.1,89.93-33.21,133.27c-9.34,26.79-20.19,53.16-32.91,78.59
			c-14.51,29-30.32,57.29-48.58,84.17c-2.77,4.08-5.02,3.96-8.72,2.31c-13.48-6.03-22.88-16.49-28.27-29.61
			c-10.78-26.21-20.12-52.96-28.18-80.21c-6.59-22.26-12.16-44.7-16.92-67.36c-1.56-7.4-1.59-15.12-2.2-22.71
			c-0.35-4.37-1.38-7.33-5.92-10.1c-10.12-6.15-15.55-15.72-15.13-28.15C1241.59,894.81,1239.86,883.92,1243.3,872.57z"/>
		<path d="M672.59,1465.63c26.03,0.53,47.14-10.61,69.36-18.05c11.01-3.68,22.87-2.79,34.45-2.58c19.46,0.34,38.94,1.19,57.84-5.15
			c28.5-9.56,55.32-22.4,80.82-38.42c24.71-15.53,48.09-32.82,70.79-51.01c20.54-16.45,40.47-33.64,62.19-48.57
			c12.97-8.91,26.01-17.71,38.91-26.72c24.15-16.86,45.9-36.45,65.15-58.71c16.89-19.53,32.2-40.31,47.52-61.09
			c2.13-2.89,4.58-9.26,9.3-6.68c3.06,1.67,0.64,7.08-0.4,10.96c-10.39,38.97-28.2,75.1-42.87,112.43
			c-9.18,23.34-19.42,46.28-28.17,69.77c-3.93,10.54-12.14,15.63-20.63,20.67c-23.72,14.08-48,27.06-73.07,38.67
			c-38.19,17.68-77.53,31.95-118.18,42.66c-40.17,10.58-80.81,18.13-122.31,21.83c-42.45,3.78-84.78,3.45-127.21,1.46
			C675.5,1467.08,674.96,1466.66,672.59,1465.63z"/>
		<path d="M494.25,1170.51c-2.17-9.56,1.44-18.31,5.36-26.94c1.61-3.55,3.08-7.99,7.61-8.42c5.23-0.5,5.74,4.67,7.37,8.01
			c6.33,13.02,16.46,19.39,28.72,17.24c9.06-1.59,13.73-9.61,20.34-14.8c22.07-17.32,46.22-29.76,74.9-30.81
			c6.02-0.22,12.14,0.86,18.13,1.82c17.79,2.84,32.48-4.65,45.03-15.45c14.18-12.2,29.63-17.65,48.17-17.58
			c35.46,0.13,70.93,2.27,106.39-0.01c5.85-0.38,11.41-1.76,16.71-3.98c9.15-3.83,10.05-9.2,2.2-15.07
			c-5.12-3.83-8.1-9.14-11.52-14.05c-6.79-9.77-2.55-18.39,9.36-20.24c17.06-2.64,35.49,5.81,44.6,20.46
			c14.09,22.65,9.53,46.23-11.46,61.4c-3.7,2.67-7.34,3.35-11.05,2.13c-4.26-1.41-2.51-5.73-2.6-8.83
			c-0.16-5.48-0.47-10.99,1.11-16.41c0.79-2.68,1.01-5.67-2.07-7.26c-2.44-1.26-4.93-0.37-6.8,1.32
			c-18.62,16.86-43.57,18.68-65.53,27.57c-13.19,5.34-27.17,6.27-41.29,5.56c-18.45-0.93-34.8,6.98-51.81,12.28
			c-18.72,5.84-36.85,13.54-56.47,16.64c-8.78,1.39-17.43,2.81-26.32,2.56c-25.29-0.69-48.57,5.67-69.65,19.83
			c-7.66,5.15-16.38,6.72-25.33,5.79c-9.73-1.02-14.63,2.6-16.25,12.45c-1.46,8.9-5.26,17.24-8.95,25.51
			c-2.45,5.49-6.82,9.27-12.41,9.52c-6.57,0.3-7.66-6.16-9.09-10.91C497.81,1197.1,491.95,1184.71,494.25,1170.51z"/>
		<path d="M205.45,231.21c-5.46,24.75-14.55,45.85-22.9,67.16c-8.15,20.8-15.93,41.7-22.81,62.96
			c-9.7,29.97-16.08,60.62-20.32,91.77c-1.27,9.31-7.46,16.62-14.88,19.74c-29.63,12.49-57.03,29.19-87.56,45.45
			C71.62,408.84,127.31,314.74,205.45,231.21z"/>
		<path d="M1141.2,125.92c69.01,45.98,127.18,100.34,177.09,165.46c-9.06,1.79-16.74-0.97-24.26-1.68
			c-23.92-2.24-47.7-5.32-71.83-5.38c-10.42-0.03-18.56-6.76-24.64-15.24c-10.61-14.79-14.84-32.31-20.52-49.15
			c-9.64-28.62-18.9-57.36-32.61-84.4C1143.26,133.19,1142.73,130.52,1141.2,125.92z"/>
		<path d="M1324.19,713.81c2.19,14.54-4.75,24.14-16.75,30.6c-10.09,5.43-15.68,14.4-19.21,24.5c-4.3,12.29-10.85,23.01-19.33,32.63
			c-2.55,2.89-5.74,6.48-10.16,4.1c-4.52-2.44-2.5-6.97-1.92-10.73c3.18-20.64,7.82-41.09,4.88-62.3
			c-1.39-10.01-6.66-18.14-10.93-26.67c-8.18-16.39-10.79-34.06-12.76-51.74c-1.17-10.53-3.12-21.18-2.05-31.94
			c0.39-3.88-0.2-8.71,3.92-10.33c4.38-1.73,8.08,1.49,11.1,4.64c12.63,13.2,25.86,25.93,40.54,36.64
			c16.33,11.91,25.79,27.47,31.35,46.27C1324.3,704.31,1323.7,709.14,1324.19,713.81z"/>
		<path d="M1365.96,634.01c-3.66,27.73,0.82,58.58-5.37,88.72c-3.2,15.56-11.22,29.32-18.09,43.47
			c-6.07,12.51-11.21,25.4-14.25,39.04c-0.13,0.59-0.39,1.16-0.57,1.74c-1.76,5.6-4.26,11.38-10.96,10.97
			c-6.56-0.4-12.19-10.97-10.5-17.89c2.9-11.9,10.7-21.22,17.62-30.65c21.97-29.91,30.96-63.59,25.2-99.49
			c-5.32-33.13-18.06-64.45-34.28-94.11c-8.12-14.84-16-29.8-25.09-44.11c-2.53-3.98-4.08-10.14-0.05-13.67
			c5.12-4.49,12.42-2.8,18.25-1.25c22.12,5.9,36.13,21.02,44.61,41.76C1362.01,581.9,1365.59,606.36,1365.96,634.01z"/>
		<path d="M896.66,994.58c-20.44-17.27-40.63-34.85-61.41-51.71c-14.98-12.15-25.78-28.1-39.5-41.36c-2.03-1.96-3.62-4.29-6.83-3.55
			c-3.57,0.82-4.41,3.64-4.93,6.84c-1.07,6.56-1.91,13.2-3.64,19.59c-4.96,18.32-18.57,27.62-35.6,33.13
			c-1.55,0.5-3.24,0.96-4.05-0.6c-1.17-2.25,0.9-3.22,2.43-4.12c7.47-4.39,13.61-10.21,18.58-17.24
			c7.73-10.95,7.59-23.06,3.15-34.82c-6.07-16.09-15.62-29.3-33.25-34.97c-4.42-1.42-11.46-2.63-10.96-9.14
			c0.49-6.4,6.52-9.33,12.11-11.14c13.66-4.41,25.45,0.88,37.1,7.45c23.73,13.38,39.94,34.27,56.1,55.27
			c15.33,19.93,31.97,38.69,49.57,56.65C883.95,973.49,892.49,982.19,896.66,994.58z"/>
		<path d="M747.94,1180.66c6.2,0,11.7-0.14,17.18,0.04c6.35,0.21,6.98,3.42,4.3,8.48c-1.37,2.58-3.22,4.51-5.8,5.57
			c-6.91,2.84-13.41,6.69-20.91,8.13c-5.71,1.1-8.65,4.08-8.47,10.72c0.39,14.8-2.81,16.65-17.77,18.76
			c-25.58,3.6-45.01-11.31-66.35-20.45c-5.72-2.45-4.27-6,0.68-9.22c14.23-9.25,30.79-12.03,46.62-15.94
			C714.03,1182.65,731.23,1179.74,747.94,1180.66z"/>
		<path d="M656.3,969.86c-5.57-18.95,13.87-36.35,27.55-42.02c10.7-4.44,21.87-6.9,33.18-0.61c8.36,4.65,8.44,7.61,1.36,13.69
			c-7.59,6.52-16.68,9.08-25.79,9.84c-11.81,0.98-20.51,6.17-27.92,14.63C662.42,967.96,660.01,970.08,656.3,969.86z"/>
		<path d="M458.59,1100.55c-0.01-50.13,13.79-96,41.95-137.44C486.33,1008.86,473.52,1055.03,458.59,1100.55z"/>
		<path d="M1237.71,570.8c1.72-6.27,2.12-14.25,6.04-21.23c1.03-1.82,2.42-3.81,4.83-3.75c2.53,0.06,3.4,1.9,3.75,4.29
			c2.64,18.3,10.36,34.51,20.43,49.8c1.69,2.56,4.35,5.83,1.67,9.1c-2.85,3.48-6.59,1.98-10.12,0.69
			C1248.22,603.84,1237.45,588.68,1237.71,570.8z"/>
		<path d="M582.27,984.26c-10.24-1.26-20.45-2.35-30.6-3.85c-5.69-0.84-11.21-9.82-9.46-15.33c2.16-6.82,6.8-9.18,14.08-7.8
			c12.21,2.32,21.07,9.92,29.9,17.71c2.06,1.82,3.65,4.45,2.97,7.15C588.17,986.06,584.54,983.34,582.27,984.26z"/>
		<path d="M751.65,633.99c-11.27,3.97-18.7,10.42-25.42,17.04c-8.26,8.14-17.39,15.17-25.96,22.88c-1.72,1.55-3.63,2.84-5.57,1
			c-1.34-1.27,0-2.8,1.06-3.89c12.68-12.94,21.86-28.89,36.18-40.54c9.79-7.96,20.97-12.17,32.61-15.13
			c23.36-5.93,46.5-12.66,70.49-16.2c28.85-4.26,57.41-6.35,85.96,1.45c10.5,2.87,18.8,9.56,27.46,15.59
			c5.08,3.54,10.38,5.69,16.59,6.47c6.41,0.8,12.37,3.01,14.74,10.26c2.25,6.9-1.19,11.29-5.51,16.08
			c-8.56,9.49-18.76,16.09-30.79,20.16c-2.44,0.83-4.77,1.71-6.79-0.4c-2.22-2.33,0.29-4.38,0.78-6.54c0.2-0.88,0.69-1.69,1.05-2.54
			c2.69-6.49,6.64-13.63,1.02-19.7c-5.87-6.34-14.41-6.59-22.87-6.22c-15.16,0.66-25.96,10.94-38.71,16.85
			c-22.58,10.48-46.75,15.22-70.93,12.89c-25.09-2.43-48.37,2.11-71.8,8.97c-2.89,0.85-6.31,3.36-8.18,0.3
			c-1.39-2.27,0.57-5.66,2.48-8.31C736.45,654.95,744.68,646.36,751.65,633.99z M822.13,653.74c-9.11-11.61-16.33-22.07-17.5-35.07
			c-0.59-6.55-3.47-5.56-7.87-3.95c-14.9,5.46-25.74,15.75-33.93,28.86c-2.02,3.23-3.44,9.64,2.85,9.9
			C783.82,654.21,802.01,653.74,822.13,653.74z M888.99,622.15c-0.09,0-0.18,0-0.27,0c0,1.22,0.15,2.46-0.03,3.65
			c-1.13,7.45,0.15,9.98,8.52,6.48c4.96-2.08,9.78-4.57,14.66-6.77c6.28-2.83,5.94-7.83-0.15-11.36c-5.17-2.99-11.2-2.21-16.65-3.87
			c-4.38-1.34-6.38-0.14-6.1,4.57C889.11,617.27,888.99,619.71,888.99,622.15z M831.31,631.69c-4.01,0.12-6.76,1.89-6.73,5.87
			c0.03,4.08,2.43,6.99,6.73,6.82c3.82-0.15,5.8-2.86,5.96-6.65C837.46,633.54,835.09,631.79,831.31,631.69z"/>
		<path d="M766.92,701.19c41.59,1.31,81.67,0.1,123.16-6.59C873.89,712.07,796.93,720.34,766.92,701.19z"/>
		<path d="M504.52,719.67c-7.29-3.74-13.9-6.89-20.25-10.49c-3.36-1.9-7.61-3.95-9.62-0.65c-1.95,3.21,3.32,4.14,5.46,5.9
			c2.31,1.9,5.37,2.91,7.67,4.82c6.56,5.46,5.45,11.47-2.91,13.75c-18.38,5-36.81,9.76-54.82,16.03
			c-13.39,4.66-26.37,10.35-40.13,14.18c-20.3,5.64-40.63,7.75-61.24,3.66c-19.19-3.81-20.66-3.69-31.36,11.97
			c-1,1.46-1.73,3.47-4,3.08c-2.62-0.44-2.98-2.49-3.22-4.79c-2.68-25.01,4.72-39.23,25.98-51.36
			c26.7-15.24,56.44-20.99,86.78-24.41c23.1-2.61,46.19-4.48,69.39-3.31C489.08,698.9,501.43,704.37,504.52,719.67z M357.25,760.22
			c5.18,0,10.36,0.08,15.53-0.04c1.69-0.04,3.97,0.62,4.76-1.58c0.78-2.17-1.3-3.28-2.64-4.28c-4.66-3.46-8.21-7.8-11.94-12.24
			c-4.51-5.38-2.74-15.85-10.91-16.82c-7.13-0.84-12.95,5.85-19.43,9.05c-2.42,1.19-4.82,2.62-6.86,4.38
			c-9.19,7.94-7.72,13.71,3.78,18.17C338.6,760.36,347.88,760.39,357.25,760.22z M438.88,723.1c-0.49,12.53-0.52,12.39,10.92,9.69
			c2.79-0.66,4.87-2.3,7.33-3.39c9.09-4.04,9.66-7.16,2.26-13.78c-4.73-4.23-10.41-10.11-16.28-7.98
			C436.92,709.87,440.17,718.27,438.88,723.1z M389.33,740.41c0.23-4.33-2.04-6.07-6.14-5.83c-4.17,0.24-6.06,2.89-5.77,6.65
			c0.28,3.64,2.27,6.4,6.5,6.07C388.07,746.98,389.66,744.4,389.33,740.41z"/>
		<path d="M403.02,802.14c19.48-12.11,36.81-22.88,55.8-34.69C452.75,784.47,423.19,802.96,403.02,802.14z"/>
	</g>
</g>
</svg>
